<svg width="180" height="48" viewBox="0 0 180 48" fill="none" xmlns="http://www.w3.org/2000/svg">
<path d="M62.8543 18.3395C62.5636 16.2947 61.4975 14.6395 59.4622 13.0816L58.2992 12.3026L57.5239 13.4711C56.5548 14.9316 56.0702 17.0737 56.1671 19.0211C56.264 19.7026 56.4578 20.9684 57.2332 22.0395C56.5548 22.4289 55.101 22.9158 53.2596 22.9158H17.2066L17.1097 23.3053C16.819 25.4474 16.819 31.6789 20.8895 36.45C23.9908 40.15 28.5459 42 34.5547 42C47.6384 42 57.2332 35.9632 61.7882 24.9605C63.5327 24.9605 67.4094 24.9605 69.3477 21.1632C69.4447 21.0658 69.5416 20.8711 69.8323 20.0921L70.0262 19.7026L68.9601 18.9237C67.7971 18.2421 64.9865 17.95 62.8543 18.3395ZM45.9908 5H40.4666V9.96579H45.9908V5ZM45.9908 11.0368H40.4666V16.0026H45.9908V11.0368ZM39.4974 11.0368H33.9732V16.0026H39.4974V11.0368ZM33.1009 11.0368H27.5767V16.0026H33.1009V11.0368ZM26.6075 16.9763H21.0833V21.9421H26.6075V16.9763ZM33.1009 16.9763H27.5767V21.9421H33.1009V16.9763ZM39.4974 16.9763H33.9732V21.9421H39.4974V16.9763ZM45.9908 16.9763H40.4666V21.9421H45.9908V16.9763ZM52.4843 16.9763H46.96V21.9421H52.4843V16.9763ZM85.7266 15.9053C85.339 15.9053 84.9513 16.0026 84.7575 16.2947C84.4667 16.5868 84.3698 16.8789 84.3698 17.2684V23.9868C83.013 22.9158 81.4623 22.3316 79.7178 22.3316C77.6826 22.3316 75.8412 23.1105 74.3874 24.5711C72.9337 26.0316 72.1583 27.8816 72.1583 29.9263C72.1583 32.0684 72.9337 33.8211 74.3874 35.2816C75.8412 36.7421 77.5856 37.5211 79.7178 37.5211C81.7531 37.5211 83.4976 36.7421 85.0482 35.2816C86.502 33.8211 87.2773 32.0684 87.2773 29.9263V17.2684C87.2773 16.8789 87.1804 16.4895 86.8896 16.2947C86.502 16.0026 86.1143 15.9053 85.7266 15.9053ZM83.9821 31.7763C83.6914 32.3605 83.4006 32.8474 83.013 33.3342C82.6253 33.7237 82.0438 34.1132 81.5592 34.4053C80.9777 34.6974 80.3962 34.7947 79.7178 34.7947C79.0394 34.7947 78.4579 34.6974 77.8764 34.4053C77.2949 34.1132 76.8103 33.8211 76.4227 33.3342C76.035 32.9447 75.6473 32.3605 75.4535 31.7763C75.1627 31.1921 75.0658 30.6079 75.0658 29.9263C75.0658 29.2447 75.1627 28.6605 75.4535 28.0763C75.7442 27.4921 76.035 27.0053 76.4227 26.5184C76.8103 26.1289 77.2949 25.7395 77.8764 25.4474C78.4579 25.1553 79.0394 25.0579 79.7178 25.0579C80.3962 25.0579 80.9777 25.1553 81.5592 25.4474C82.1407 25.7395 82.6253 26.0316 83.013 26.5184C83.4006 26.9079 83.7883 27.4921 83.9821 28.0763C84.2729 28.6605 84.3698 29.2447 84.3698 29.9263C84.3698 30.6079 84.2729 31.1921 83.9821 31.7763ZM146.978 24.5711C145.524 23.1105 143.78 22.3316 141.648 22.3316C139.612 22.3316 137.771 23.1105 136.317 24.5711C134.863 26.0316 134.088 27.8816 134.088 29.9263C134.088 31.9711 134.863 33.8211 136.317 35.2816C137.771 36.7421 139.515 37.5211 141.648 37.5211C143.489 37.5211 145.137 36.9368 146.493 35.6711C146.784 35.3789 146.881 35.0868 146.881 34.6974C146.881 34.3079 146.784 33.9184 146.493 33.7237C146.203 33.4316 145.912 33.3342 145.524 33.3342C145.137 33.3342 144.846 33.4316 144.555 33.7237C144.167 34.1132 143.683 34.4053 143.198 34.5026C142.714 34.6974 142.132 34.7947 141.551 34.7947C141.066 34.7947 140.581 34.6974 140.097 34.5026C139.612 34.3079 139.225 34.1132 138.74 33.8211C138.352 33.5289 137.965 33.1395 137.674 32.75C137.383 32.3605 137.189 31.8737 136.996 31.3868H147.559C147.947 31.3868 148.238 31.2895 148.529 30.9974C148.819 30.7053 148.916 30.4132 148.916 30.0237C148.916 28.9526 148.722 27.9789 148.335 27.1026C148.238 26.1289 147.656 25.35 146.978 24.5711ZM137.189 28.5632C137.286 28.0763 137.577 27.5895 137.868 27.2C138.159 26.8105 138.546 26.4211 138.934 26.1289C139.322 25.8368 139.806 25.6421 140.291 25.4474C140.775 25.2526 141.26 25.1553 141.744 25.1553C142.229 25.1553 142.714 25.2526 143.198 25.4474C143.683 25.6421 144.07 25.8368 144.555 26.1289C144.943 26.4211 145.33 26.8105 145.621 27.2C145.912 27.5895 146.106 28.0763 146.3 28.5632H137.189ZM161.612 23.3053C161.322 23.0132 161.031 22.9158 160.643 22.7211C160.255 22.6237 159.868 22.5263 159.383 22.4289C158.899 22.3316 158.511 22.3316 158.123 22.3316C157.251 22.3316 156.379 22.4289 155.604 22.7211C154.828 23.0132 154.053 23.4026 153.471 23.9868V23.6947C153.471 23.3053 153.374 23.0132 153.084 22.7211C152.793 22.4289 152.502 22.3316 152.114 22.3316C151.727 22.3316 151.436 22.4289 151.145 22.7211C150.855 23.0132 150.758 23.3053 150.758 23.6947V36.1579C150.758 36.5474 150.855 36.8395 151.145 37.1316C151.436 37.4237 151.727 37.5211 152.114 37.5211C152.502 37.5211 152.793 37.4237 153.084 37.1316C153.374 36.8395 153.471 36.5474 153.471 36.1579V29.9263C153.471 29.2447 153.568 28.6605 153.859 28.0763C154.15 27.4921 154.44 27.0053 154.828 26.5184C155.216 26.1289 155.7 25.7395 156.282 25.5447C156.863 25.2526 157.445 25.1553 158.123 25.1553C158.802 25.1553 159.383 25.2526 159.965 25.4474C160.159 25.5447 160.352 25.6421 160.546 25.6421C160.74 25.6421 160.934 25.6421 161.128 25.5447C161.322 25.4474 161.418 25.35 161.612 25.2526C161.709 25.1553 161.806 24.9605 161.903 24.7658C162 24.5711 162 24.3763 162 24.1816C162 23.8895 161.903 23.5974 161.612 23.3053ZM101.524 24.5711C100.07 23.1105 98.3258 22.3316 96.1936 22.3316C94.0615 22.3316 92.317 23.1105 90.8632 24.5711C89.4095 26.0316 88.6341 27.8816 88.6341 29.9263C88.6341 31.9711 89.4095 33.8211 90.8632 35.2816C92.317 36.7421 94.0615 37.5211 96.1936 37.5211C98.2289 37.5211 99.9734 36.7421 101.524 35.2816C102.978 33.8211 103.753 32.0684 103.753 29.9263C103.753 28.8553 103.559 27.8816 103.172 27.0053C102.784 26.1289 102.299 25.35 101.524 24.5711ZM100.555 31.7763C100.264 32.3605 99.9734 32.8474 99.5857 33.3342C99.198 33.7237 98.6165 34.1132 98.132 34.4053C97.5505 34.6974 96.969 34.7947 96.2906 34.7947C95.6121 34.7947 95.0306 34.6974 94.4491 34.4053C93.8676 34.1132 93.3831 33.8211 92.9954 33.3342C92.6077 32.9447 92.2201 32.3605 92.0262 31.7763C91.7355 31.1921 91.6386 30.6079 91.6386 29.9263C91.6386 29.2447 91.7355 28.6605 92.0262 28.0763C92.317 27.4921 92.6077 27.0053 92.9954 26.5184C93.3831 26.1289 93.8676 25.7395 94.4491 25.4474C95.0306 25.1553 95.6121 25.0579 96.2906 25.0579C96.969 25.0579 97.5505 25.1553 98.132 25.4474C98.7135 25.7395 99.198 26.0316 99.5857 26.5184C99.9734 26.9079 100.361 27.4921 100.555 28.0763C100.846 28.6605 100.943 29.2447 100.943 29.9263C100.943 30.6079 100.846 31.1921 100.555 31.7763ZM132.634 23.7921C132.634 23.5974 132.634 23.4026 132.537 23.2079C132.44 23.0132 132.344 22.9158 132.247 22.7211C132.15 22.6237 131.956 22.5263 131.762 22.4289C131.568 22.3316 131.374 22.3316 131.181 22.3316C130.89 22.3316 130.696 22.4289 130.405 22.5263L122.458 27.7842V17.2684C122.458 16.8789 122.361 16.4895 122.07 16.2947C121.78 16.0026 121.489 15.9053 121.101 15.9053C120.714 15.9053 120.423 16.0026 120.132 16.2947C119.841 16.5868 119.744 16.8789 119.744 17.2684V36.1579C119.744 36.5474 119.841 36.8395 120.132 37.1316C120.423 37.4237 120.714 37.5211 121.101 37.5211C121.489 37.5211 121.78 37.4237 122.07 37.1316C122.361 36.8395 122.458 36.5474 122.458 36.1579V31.2895L124.106 30.2184L130.308 37.2289C130.599 37.5211 130.89 37.6184 131.277 37.6184C131.471 37.6184 131.665 37.6184 131.859 37.5211C132.053 37.4237 132.15 37.3263 132.344 37.2289C132.44 37.1316 132.537 36.9368 132.634 36.7421C132.731 36.5474 132.731 36.3526 132.731 36.1579C132.731 35.7684 132.634 35.4763 132.344 35.1842L126.625 28.6605L132.247 24.9605C132.537 24.6684 132.634 24.2789 132.634 23.7921ZM109.471 26.6158C109.859 26.2263 110.44 25.8368 110.925 25.6421C111.506 25.35 112.088 25.2526 112.766 25.2526C113.348 25.2526 113.929 25.35 114.414 25.5447C114.899 25.7395 115.383 26.0316 115.868 26.4211C116.158 26.6158 116.449 26.7132 116.74 26.7132C117.128 26.7132 117.515 26.6158 117.709 26.3237C118 26.0316 118.097 25.7395 118.097 25.35C118.097 24.9605 117.903 24.5711 117.612 24.2789C116.255 23.0132 114.608 22.4289 112.766 22.4289C110.731 22.4289 108.89 23.2079 107.436 24.6684C105.982 26.1289 105.207 27.9789 105.207 30.0237C105.207 32.1658 105.982 33.9184 107.436 35.3789C108.89 36.8395 110.634 37.6184 112.766 37.6184C114.608 37.6184 116.255 37.0342 117.612 35.7684C117.903 35.4763 118.097 35.0868 118.097 34.6974C118.097 34.3079 118 33.9184 117.709 33.7237C117.418 33.4316 117.128 33.3342 116.74 33.3342C116.449 33.3342 116.062 33.4316 115.868 33.6263C115.383 34.0158 114.995 34.3079 114.414 34.5026C113.929 34.6974 113.348 34.7947 112.766 34.7947C112.088 34.7947 111.506 34.6974 110.925 34.4053C110.343 34.1132 109.859 33.8211 109.471 33.4316C109.084 33.0421 108.696 32.4579 108.502 31.8737C108.211 31.2895 108.114 30.6079 108.114 30.0237C108.114 29.3421 108.211 28.7579 108.502 28.1737C108.696 27.5895 108.987 27.0053 109.471 26.6158Z" fill="black"/>
</svg>
