<svg width="180" height="48" viewBox="0 0 180 48" fill="none" xmlns="http://www.w3.org/2000/svg">
<path d="M33.8572 6C24.0357 6 16 14.0357 16 23.8572C16 33.6786 24.0357 41.7144 33.8572 41.7144C43.6786 41.7144 51.7144 33.6786 51.7144 23.8572C51.7144 14.0357 43.6786 6 33.8572 6ZM23.9082 33.8062C21.2296 31.1276 19.8265 27.5562 19.8265 24.1123L33.7296 37.8878C30.1582 37.7603 26.5868 36.4848 23.9082 33.8062ZM36.9184 37.5052L20.2092 20.7959C21.6123 14.5459 27.2245 9.82654 33.8572 9.82654C38.5766 9.82654 42.6582 12.1225 45.2092 15.5663L43.296 17.2245C41.1276 14.2908 37.6837 12.3776 33.8572 12.3776C28.8827 12.3776 24.6735 15.5663 23.0153 20.0306L37.6837 34.699C41.3827 33.4235 44.1888 30.2347 45.0817 26.4082H38.9592V23.8572H47.8878C47.8878 30.4898 43.1684 36.1021 36.9184 37.5052Z" fill="black"/>
<path d="M91.9926 19.1907H95.3653V31.236H91.9926V29.6701C90.7881 31.4769 89.2222 31.5973 88.2586 31.5973C84.5245 31.5973 82.1155 28.7065 82.1155 25.2133C82.1155 21.5998 84.5245 18.8293 88.0177 18.8293C88.9813 18.8293 90.7881 18.9498 91.8721 20.7566V19.1907H91.9926ZM85.7291 25.2133C85.7291 27.1406 87.054 28.586 89.1017 28.586C91.029 28.586 92.4744 27.1406 92.4744 25.2133C92.4744 23.2861 91.1494 21.8407 89.1017 21.8407C87.1745 21.8407 85.7291 23.2861 85.7291 25.2133Z" fill="black"/>
<path d="M101.99 22.0817V31.2361H98.6177V22.0817H97.2927V19.1909H98.6177V15.0955H101.99V19.1909H104.279V22.0817H101.99Z" fill="black"/>
<path d="M112.229 22.0816C111.386 21.3589 110.663 21.2384 110.301 21.2384C109.458 21.2384 108.976 21.5998 108.976 22.202C108.976 22.5634 109.097 22.9247 110.061 23.2861L110.904 23.527C111.867 23.8884 113.313 24.2497 113.915 25.2133C114.276 25.6952 114.517 26.4179 114.517 27.261C114.517 28.3451 114.156 29.4292 113.192 30.2724C112.229 31.1155 111.024 31.5973 109.579 31.5973C107.049 31.5973 105.724 30.3928 104.881 29.5496L106.688 27.5019C107.411 28.2247 108.374 28.9474 109.338 28.9474C110.301 28.9474 111.024 28.4656 111.024 27.6224C111.024 26.8997 110.422 26.5383 109.94 26.4179L109.217 26.177C108.374 25.8156 107.411 25.4542 106.688 24.7315C106.086 24.1293 105.724 23.4065 105.724 22.4429C105.724 21.2384 106.327 20.2748 106.929 19.6725C107.892 18.9498 109.097 18.8293 110.061 18.8293C110.904 18.8293 112.349 18.9498 113.915 20.1543L112.229 22.0816Z" fill="black"/>
<path d="M119.576 20.7567C120.781 19.0703 122.467 18.8294 123.431 18.8294C126.924 18.8294 129.333 21.5998 129.333 25.2134C129.333 28.827 126.924 31.5974 123.31 31.5974C122.588 31.5974 120.781 31.477 119.456 29.6702V31.2361H116.204V11H119.576V20.7567ZM119.215 25.2134C119.215 27.1407 120.54 28.5861 122.588 28.5861C124.515 28.5861 125.96 27.1407 125.96 25.2134C125.96 23.2862 124.635 21.8407 122.588 21.8407C120.54 21.8407 119.215 23.2862 119.215 25.2134Z" fill="black"/>
<path d="M134.874 29.4294L129.092 19.1909H133.067L136.801 26.0567L140.174 19.1909H144.028L134.392 37.6202H130.537L134.874 29.4294Z" fill="black"/>
<path d="M81.2724 21.2385H77.8998H72.8407V24.6111H77.2975C76.5748 26.8997 74.8884 28.4656 71.7567 28.4656C68.2635 28.4656 65.734 25.5748 65.734 22.0816C65.734 18.5885 68.1431 15.5772 71.6362 15.5772C73.5635 15.5772 75.4907 16.5408 76.6952 18.1067L79.4656 16.2999C77.6589 13.7704 74.768 12.325 71.6362 12.325C66.3363 12.325 62 16.6612 62 22.0816C62 27.502 66.0954 31.8383 71.6362 31.8383C77.177 31.8383 81.2724 27.502 81.2724 22.0816C81.3929 21.7203 81.2724 21.4794 81.2724 21.2385Z" fill="black"/>
</svg>
