<svg width="180" height="48" viewBox="0 0 180 48" fill="none" xmlns="http://www.w3.org/2000/svg">
<path fill-rule="evenodd" clip-rule="evenodd" d="M32 8.5L45.4737 16V31L32 38.5L18.5263 31V16L32 8.5ZM20.0381 16.8415V27.8594L29.9349 11.3326L20.0381 16.8415ZM32 10.7991L20.5914 29.8505H43.4086L32 10.7991ZM41.8968 31.308H22.1032L32 36.817L41.8968 31.308ZM43.9619 27.8594L34.0651 11.3326L43.9619 16.8415V27.8594Z" fill="black"/>
<path d="M32 12.6667C33.8603 12.6667 35.3684 11.1743 35.3684 9.33333C35.3684 7.49238 33.8603 6 32 6C30.1397 6 28.6316 7.49238 28.6316 9.33333C28.6316 11.1743 30.1397 12.6667 32 12.6667Z" fill="black"/>
<path d="M44.6316 19.3333C46.4919 19.3333 48 18.0275 48 16.4167C48 14.8058 46.4919 13.5 44.6316 13.5C42.7713 13.5 41.2632 14.8058 41.2632 16.4167C41.2632 18.0275 42.7713 19.3333 44.6316 19.3333Z" fill="black"/>
<path d="M44.6316 33.5C46.4919 33.5 48 32.1942 48 30.5833C48 28.9725 46.4919 27.6667 44.6316 27.6667C42.7713 27.6667 41.2632 28.9725 41.2632 30.5833C41.2632 32.1942 42.7713 33.5 44.6316 33.5Z" fill="black"/>
<path d="M32 41C33.8603 41 35.3684 39.5076 35.3684 37.6667C35.3684 35.8257 33.8603 34.3333 32 34.3333C30.1397 34.3333 28.6316 35.8257 28.6316 37.6667C28.6316 39.5076 30.1397 41 32 41Z" fill="black"/>
<path d="M19.3684 33.5C21.2287 33.5 22.7368 32.1942 22.7368 30.5833C22.7368 28.9725 21.2287 27.6667 19.3684 27.6667C17.5081 27.6667 16 28.9725 16 30.5833C16 32.1942 17.5081 33.5 19.3684 33.5Z" fill="black"/>
<path d="M19.3684 19.3333C21.2287 19.3333 22.7368 18.0275 22.7368 16.4167C22.7368 14.8058 21.2287 13.5 19.3684 13.5C17.5081 13.5 16 14.8058 16 16.4167C16 18.0275 17.5081 19.3333 19.3684 19.3333Z" fill="black"/>
<path d="M64.5252 31.5888C63.1629 31.5888 62.0018 31.3354 61.042 30.8285C60.0977 30.3216 59.3701 29.6074 58.8592 28.6858C58.3638 27.7642 58.0851 26.6813 58.0232 25.4371C58.0077 24.7613 58 24.047 58 23.2944C58 22.5264 58.0077 21.7968 58.0232 21.1056C58.0851 19.8614 58.3638 18.7862 58.8592 17.88C59.3701 16.9738 60.1054 16.2672 61.0652 15.7603C62.025 15.2534 63.1783 15 64.5252 15C65.6243 15 66.5764 15.1536 67.3814 15.4608C68.1864 15.768 68.8443 16.1597 69.3552 16.6358C69.8815 17.0966 70.2686 17.5805 70.5162 18.0874C70.7794 18.5942 70.9187 19.0397 70.9342 19.4237C70.9497 19.5619 70.911 19.6771 70.8181 19.7693C70.7252 19.8461 70.6014 19.8845 70.4466 19.8845H69.0765C68.9217 19.8845 68.8056 19.8538 68.7282 19.7923C68.6663 19.7309 68.6044 19.6234 68.5424 19.4698C68.4031 19.0704 68.1709 18.6787 67.8458 18.2947C67.5362 17.9107 67.1105 17.5958 66.5686 17.3501C66.0423 17.089 65.3611 16.9584 64.5252 16.9584C63.3022 16.9584 62.3114 17.2886 61.5529 17.9491C60.8098 18.6096 60.4073 19.7002 60.3453 21.2208C60.2989 22.5878 60.2989 23.9549 60.3453 25.3219C60.4073 26.8579 60.8175 27.9638 61.5761 28.6397C62.3346 29.3002 63.3254 29.6304 64.5484 29.6304C65.3689 29.6304 66.0965 29.4845 66.7312 29.1926C67.3814 28.8854 67.8922 28.417 68.2638 27.7872C68.6353 27.1574 68.8211 26.3587 68.8211 25.391V24.4234H65.3379C65.1831 24.4234 65.0515 24.3773 64.9432 24.2851C64.8503 24.1776 64.8038 24.0394 64.8038 23.8704V23.1331C64.8038 22.9642 64.8503 22.8336 64.9432 22.7414C65.0515 22.6339 65.1831 22.5802 65.3379 22.5802H70.5859C70.7562 22.5802 70.8878 22.6339 70.9807 22.7414C71.0736 22.8336 71.12 22.9642 71.12 23.1331V25.345C71.12 26.6045 70.8568 27.7027 70.3305 28.6397C69.8196 29.5766 69.0688 30.3062 68.078 30.8285C67.0872 31.3354 65.903 31.5888 64.5252 31.5888Z" fill="black"/>
<path d="M74.665 31.3584C74.5102 31.3584 74.3787 31.3123 74.2703 31.2202C74.1774 31.1126 74.131 30.9821 74.131 30.8285V19.9306C74.131 19.777 74.1774 19.6464 74.2703 19.5389C74.3787 19.4314 74.5102 19.3776 74.665 19.3776H75.7332C75.888 19.3776 76.0196 19.4314 76.128 19.5389C76.2364 19.6464 76.2905 19.777 76.2905 19.9306V20.9443C76.6002 20.4221 77.0259 20.0304 77.5677 19.7693C78.1095 19.5082 78.7597 19.3776 79.5183 19.3776H80.4471C80.6019 19.3776 80.7258 19.4314 80.8187 19.5389C80.9116 19.631 80.958 19.7539 80.958 19.9075V20.8522C80.958 21.0058 80.9116 21.1286 80.8187 21.2208C80.7258 21.313 80.6019 21.359 80.4471 21.359H79.0539C78.2179 21.359 77.56 21.6048 77.0801 22.0963C76.6002 22.5725 76.3602 23.2253 76.3602 24.0547V30.8285C76.3602 30.9821 76.306 31.1126 76.1977 31.2202C76.0893 31.3123 75.9577 31.3584 75.8029 31.3584H74.665Z" fill="black"/>
<path d="M86.138 31.5888C85.3639 31.5888 84.6596 31.4352 84.0248 31.128C83.3901 30.8208 82.8793 30.4061 82.4922 29.8838C82.1052 29.3616 81.9117 28.7702 81.9117 28.1098C81.9117 27.0499 82.3452 26.2051 83.2121 25.5754C84.079 24.9456 85.2091 24.5309 86.6024 24.3312L90.0624 23.8474V23.1792C90.0624 22.4419 89.8456 21.8659 89.4122 21.4512C88.9942 21.0365 88.3053 20.8291 87.3455 20.8291C86.6488 20.8291 86.0838 20.9674 85.6503 21.2438C85.2323 21.5203 84.9382 21.8736 84.7679 22.3037C84.675 22.5341 84.5125 22.6493 84.2803 22.6493H83.2353C83.065 22.6493 82.9334 22.6032 82.8406 22.511C82.7632 22.4035 82.7245 22.2806 82.7245 22.1424C82.7245 21.912 82.8096 21.6278 82.9799 21.2899C83.1657 20.952 83.4443 20.6218 83.8159 20.2992C84.1874 19.9766 84.6596 19.7078 85.2323 19.4928C85.8206 19.2624 86.5327 19.1472 87.3687 19.1472C88.2975 19.1472 89.0793 19.2701 89.714 19.5158C90.3488 19.7462 90.8441 20.0611 91.2002 20.4605C91.5717 20.8598 91.8349 21.313 91.9897 21.8198C92.16 22.3267 92.2452 22.8413 92.2452 23.3635V30.8285C92.2452 30.9821 92.191 31.1126 92.0826 31.2202C91.9897 31.3123 91.8659 31.3584 91.7111 31.3584H90.6429C90.4726 31.3584 90.341 31.3123 90.2481 31.2202C90.1553 31.1126 90.1088 30.9821 90.1088 30.8285V29.8378C89.9076 30.1142 89.6366 30.3907 89.2961 30.6672C88.9555 30.9283 88.5298 31.151 88.0189 31.3354C87.508 31.5043 86.8811 31.5888 86.138 31.5888ZM86.6256 29.8608C87.2603 29.8608 87.8409 29.7302 88.3672 29.4691C88.8936 29.1926 89.3038 28.7702 89.5979 28.2019C89.9076 27.6336 90.0624 26.9194 90.0624 26.0592V25.4141L87.3687 25.8058C86.2696 25.9594 85.4413 26.2205 84.884 26.5891C84.3267 26.9424 84.0481 27.3955 84.0481 27.9485C84.0481 28.3786 84.1719 28.7395 84.4196 29.0314C84.6828 29.3078 85.0079 29.5152 85.3949 29.6534C85.7974 29.7917 86.2076 29.8608 86.6256 29.8608Z" fill="black"/>
<path d="M96.1407 35.736C95.9859 35.736 95.8543 35.6822 95.7459 35.5747C95.6531 35.4826 95.6066 35.3597 95.6066 35.2061V19.9075C95.6066 19.7539 95.6531 19.631 95.7459 19.5389C95.8543 19.4314 95.9859 19.3776 96.1407 19.3776H97.2089C97.3637 19.3776 97.4875 19.4314 97.5804 19.5389C97.6888 19.631 97.743 19.7539 97.743 19.9075V20.9213C98.1145 20.4144 98.6099 19.992 99.2291 19.6541C99.8484 19.3162 100.622 19.1472 101.551 19.1472C102.418 19.1472 103.154 19.2931 103.757 19.585C104.377 19.8768 104.88 20.2762 105.267 20.783C105.669 21.2899 105.971 21.8659 106.172 22.511C106.374 23.1562 106.482 23.8474 106.497 24.5846C106.513 24.8304 106.521 25.0915 106.521 25.368C106.521 25.6445 106.513 25.9056 106.497 26.1514C106.482 26.8733 106.374 27.5645 106.172 28.225C105.971 28.8701 105.669 29.4461 105.267 29.953C104.88 30.4445 104.377 30.8438 103.757 31.151C103.154 31.4429 102.418 31.5888 101.551 31.5888C100.653 31.5888 99.8948 31.4275 99.2756 31.105C98.6718 30.767 98.1764 30.3523 97.7894 29.8608V35.2061C97.7894 35.3597 97.743 35.4826 97.6501 35.5747C97.5572 35.6822 97.4256 35.736 97.2553 35.736H96.1407ZM101.064 29.7226C101.869 29.7226 102.496 29.5536 102.945 29.2157C103.409 28.8624 103.742 28.4093 103.943 27.8563C104.144 27.288 104.26 26.6813 104.291 26.0362C104.307 25.5907 104.307 25.1453 104.291 24.6998C104.26 24.0547 104.144 23.4557 103.943 22.9027C103.742 22.3344 103.409 21.8813 102.945 21.5434C102.496 21.1901 101.869 21.0134 101.064 21.0134C100.305 21.0134 99.6858 21.1901 99.2059 21.5434C98.7415 21.8966 98.3932 22.3498 98.161 22.9027C97.9442 23.4403 97.8204 23.9933 97.7894 24.5616C97.7739 24.8074 97.7662 25.0992 97.7662 25.4371C97.7662 25.775 97.7739 26.0746 97.7894 26.3357C97.8049 26.8733 97.9287 27.4032 98.161 27.9254C98.4086 28.4477 98.7724 28.8778 99.2524 29.2157C99.7323 29.5536 100.336 29.7226 101.064 29.7226Z" fill="black"/>
<path d="M109.974 31.3584C109.819 31.3584 109.687 31.3123 109.579 31.2202C109.486 31.1126 109.44 30.9821 109.44 30.8285V15.5299C109.44 15.3763 109.486 15.2534 109.579 15.1613C109.687 15.0538 109.819 15 109.974 15H111.135C111.305 15 111.437 15.0538 111.529 15.1613C111.622 15.2534 111.669 15.3763 111.669 15.5299V20.8982C112.087 20.376 112.598 19.9536 113.201 19.631C113.805 19.3085 114.571 19.1472 115.5 19.1472C116.507 19.1472 117.358 19.3699 118.055 19.8154C118.767 20.2454 119.301 20.8522 119.657 21.6355C120.028 22.4035 120.214 23.3021 120.214 24.3312V30.8285C120.214 30.9821 120.168 31.1126 120.075 31.2202C119.982 31.3123 119.85 31.3584 119.68 31.3584H118.519C118.364 31.3584 118.233 31.3123 118.124 31.2202C118.031 31.1126 117.985 30.9821 117.985 30.8285V24.4464C117.985 23.3712 117.722 22.5341 117.195 21.935C116.669 21.3206 115.895 21.0134 114.873 21.0134C113.914 21.0134 113.139 21.3206 112.551 21.935C111.963 22.5341 111.669 23.3712 111.669 24.4464V30.8285C111.669 30.9821 111.622 31.1126 111.529 31.2202C111.437 31.3123 111.305 31.3584 111.135 31.3584H109.974Z" fill="black"/>
<path d="M134.341 32.856C134.14 32.856 133.978 32.7869 133.854 32.6486C133.73 32.5258 133.629 32.4182 133.552 32.3261L132.6 31.0358C131.764 31.4045 130.796 31.5888 129.697 31.5888C128.366 31.5888 127.228 31.3661 126.284 30.9206C125.355 30.4598 124.627 29.761 124.101 28.824C123.59 27.8717 123.311 26.6813 123.265 25.2528C123.249 24.577 123.242 23.9318 123.242 23.3174C123.242 22.6877 123.249 22.0349 123.265 21.359C123.311 19.9459 123.606 18.7709 124.147 17.8339C124.689 16.8816 125.432 16.175 126.377 15.7142C127.336 15.2381 128.443 15 129.697 15C130.967 15 132.074 15.2381 133.018 15.7142C133.978 16.175 134.728 16.8816 135.27 17.8339C135.812 18.7709 136.099 19.9459 136.129 21.359C136.16 22.0349 136.176 22.6877 136.176 23.3174C136.176 23.9318 136.16 24.577 136.129 25.2528C136.052 27.3725 135.495 28.9469 134.458 29.976L135.99 32.1418C136.006 32.1571 136.021 32.1802 136.037 32.2109C136.052 32.257 136.06 32.3184 136.06 32.3952C136.075 32.5181 136.037 32.6256 135.944 32.7178C135.851 32.8099 135.735 32.856 135.595 32.856H134.341ZM129.697 29.6304C130.874 29.6304 131.841 29.2771 132.6 28.5706C133.358 27.864 133.769 26.7197 133.831 25.1376C133.862 24.4464 133.877 23.832 133.877 23.2944C133.877 22.7414 133.862 22.127 133.831 21.4512C133.8 20.3914 133.598 19.5312 133.227 18.8707C132.871 18.2102 132.391 17.7264 131.787 17.4192C131.183 17.112 130.487 16.9584 129.697 16.9584C128.939 16.9584 128.25 17.112 127.631 17.4192C127.027 17.7264 126.547 18.2102 126.191 18.8707C125.835 19.5312 125.633 20.3914 125.587 21.4512C125.572 22.127 125.564 22.7414 125.564 23.2944C125.564 23.832 125.572 24.4464 125.587 25.1376C125.649 26.7197 126.059 27.864 126.818 28.5706C127.576 29.2771 128.536 29.6304 129.697 29.6304Z" fill="black"/>
<path d="M140.118 31.3584C139.948 31.3584 139.816 31.3123 139.723 31.2202C139.63 31.1126 139.584 30.9821 139.584 30.8285V15.7603C139.584 15.6067 139.63 15.4838 139.723 15.3917C139.816 15.2842 139.948 15.2304 140.118 15.2304H141.349C141.503 15.2304 141.627 15.2842 141.72 15.3917C141.813 15.4838 141.86 15.6067 141.86 15.7603V29.3539H149.592C149.762 29.3539 149.894 29.4077 149.987 29.5152C150.08 29.6074 150.126 29.7379 150.126 29.9069V30.8285C150.126 30.9821 150.08 31.1126 149.987 31.2202C149.894 31.3123 149.762 31.3584 149.592 31.3584H140.118Z" fill="black"/>
</svg>
