<svg width="180" height="48" viewBox="0 0 180 48" fill="none" xmlns="http://www.w3.org/2000/svg">
<path d="M95.2405 12.01H116.003V15.8101H107.767V35.8018H103.648V15.8101H95.2405V12.01Z" fill="black" fill-opacity="0.8"/>
<path d="M61.0938 12.01V15.8101H44.4512V21.9232H57.8352V25.7233H44.4512V32.0017H61.0938V35.8018H40.333V15.8101H40.3313V12.01H61.0938Z" fill="black" fill-opacity="0.8"/>
<path d="M71.4612 12.0198H66.0718L85.3755 35.8116H90.7807L81.1276 23.9239L90.7652 12.0379L85.3755 12.0462L78.4292 20.6008L71.4612 12.0198Z" fill="black" fill-opacity="0.8"/>
<path d="M76.9916 29.0143L74.2927 25.6868L66.0564 35.8297H71.4612L76.9916 29.0143Z" fill="black" fill-opacity="0.8"/>
<path fill-rule="evenodd" clip-rule="evenodd" d="M40.4774 35.8017L21.1477 12H16V35.7918H20.1182V17.0855L35.304 35.8017H40.4774Z" fill="black" fill-opacity="0.8"/>
<path d="M116.929 35.6564C116.627 35.6564 116.371 35.5528 116.156 35.3456C115.941 35.1384 115.835 34.8875 115.837 34.5903C115.835 34.3013 115.941 34.0532 116.156 33.846C116.371 33.6388 116.627 33.5352 116.929 33.5352C117.219 33.5352 117.473 33.6388 117.687 33.846C117.905 34.0532 118.014 34.3013 118.017 34.5903C118.014 34.7866 117.964 34.9666 117.863 35.1274C117.76 35.2911 117.629 35.4192 117.464 35.5119C117.302 35.6073 117.124 35.6564 116.929 35.6564Z" fill="black" fill-opacity="0.8"/>
<path d="M123.958 25.6335H125.783V32.6053C125.78 33.2461 125.64 33.7941 125.367 34.2549C125.091 34.7157 124.708 35.0674 124.217 35.3155C123.729 35.5609 123.157 35.6863 122.507 35.6863C121.912 35.6863 121.379 35.58 120.905 35.3728C120.431 35.1656 120.054 34.8547 119.778 34.4457C119.499 34.0368 119.362 33.5269 119.362 32.9162H121.19C121.192 33.1834 121.254 33.4151 121.371 33.6087C121.488 33.8023 121.65 33.9495 121.857 34.0531C122.066 34.1567 122.306 34.2085 122.576 34.2085C122.869 34.2085 123.121 34.1485 123.324 34.0258C123.528 33.9059 123.684 33.7259 123.793 33.486C123.899 33.2488 123.955 32.9543 123.958 32.6053V25.6335Z" fill="black" fill-opacity="0.8"/>
<path d="M133.291 28.3601C133.247 27.9375 133.051 27.6076 132.711 27.3731C132.368 27.1359 131.924 27.0187 131.38 27.0187C130.998 27.0187 130.669 27.076 130.395 27.1877C130.122 27.3023 129.91 27.4549 129.764 27.6485C129.619 27.8421 129.547 28.063 129.541 28.3111C129.541 28.5183 129.591 28.6982 129.689 28.8482C129.787 29.0009 129.918 29.129 130.088 29.2327C130.255 29.339 130.442 29.4262 130.646 29.4971C130.853 29.568 131.059 29.628 131.266 29.6771L132.217 29.9088C132.599 29.9961 132.971 30.1133 133.325 30.2633C133.679 30.4105 134 30.5987 134.282 30.8249C134.564 31.0513 134.787 31.3239 134.952 31.6429C135.116 31.9619 135.2 32.3354 135.2 32.7662C135.2 33.347 135.049 33.8569 134.745 34.2985C134.441 34.7375 134.003 35.0811 133.428 35.3292C132.856 35.5746 132.164 35.7 131.349 35.7C130.562 35.7 129.876 35.5801 129.298 35.3401C128.718 35.1029 128.266 34.7539 127.939 34.2958C127.613 33.8378 127.437 33.2788 127.412 32.6217H129.22C129.245 32.9653 129.357 33.2516 129.547 33.4833C129.739 33.7123 129.99 33.8814 130.297 33.9959C130.607 34.1077 130.953 34.165 131.335 34.165C131.734 34.165 132.086 34.105 132.39 33.9877C132.691 33.8705 132.929 33.7069 133.099 33.4942C133.272 33.2843 133.358 33.0362 133.361 32.7526C133.358 32.4936 133.28 32.2782 133.129 32.1091C132.976 31.9401 132.764 31.7983 132.493 31.6838C132.22 31.5693 131.902 31.4657 131.539 31.3757L130.384 31.0867C129.55 30.8767 128.888 30.5578 128.405 30.1297C127.92 29.7016 127.68 29.1345 127.68 28.4229C127.68 27.8394 127.842 27.3268 128.168 26.8878C128.492 26.4489 128.936 26.108 129.497 25.8654C130.06 25.62 130.696 25.5 131.405 25.5C132.125 25.5 132.756 25.62 133.3 25.8654C133.844 26.108 134.271 26.4461 134.58 26.8769C134.89 27.3077 135.052 27.8012 135.061 28.3601H133.291Z" fill="black" fill-opacity="0.8"/>
</svg>
