<svg width="180" height="48" viewBox="0 0 180 48" fill="none" xmlns="http://www.w3.org/2000/svg">
<path d="M112.5 38C112.205 38 111.93 37.9228 111.674 37.7877L109.058 36.2637C108.665 36.0514 108.861 35.9743 108.979 35.9357C109.51 35.762 109.609 35.7234 110.159 35.4148C110.218 35.3762 110.297 35.3955 110.356 35.4341L112.362 36.6109C112.441 36.6495 112.539 36.6495 112.598 36.6109L120.447 32.1543C120.525 32.1157 120.565 32.0385 120.565 31.9421V23.0482C120.565 22.9518 120.525 22.8746 120.447 22.836L112.598 18.3987C112.52 18.3601 112.421 18.3601 112.362 18.3987L104.515 22.836C104.436 22.8746 104.397 22.971 104.397 23.0482V31.9421C104.397 32.0193 104.436 32.1157 104.515 32.1543L106.658 33.3698C107.819 33.9485 108.547 33.2733 108.547 32.598V23.8199C108.547 23.7042 108.645 23.5884 108.783 23.5884H109.786C109.904 23.5884 110.022 23.6848 110.022 23.8199V32.598C110.022 34.1222 109.176 35.0096 107.701 35.0096C107.249 35.0096 106.894 35.0096 105.891 34.5274L103.826 33.3698C103.315 33.0804 103 32.5402 103 31.9614V23.0675C103 22.4887 103.315 21.9485 103.826 21.6591L111.674 17.2026C112.166 16.9325 112.834 16.9325 113.326 17.2026L121.174 21.6591C121.685 21.9485 122 22.4887 122 23.0675V31.9614C122 32.5402 121.685 33.0804 121.174 33.3698L113.326 37.8263C113.09 37.9228 112.795 38 112.5 38Z" fill="black" fill-opacity="0.8"/>
<path d="M115.117 32C111.702 32 111 30.5586 111 29.3333C111 29.2252 111.098 29.1171 111.234 29.1171H112.249C112.366 29.1171 112.463 29.1892 112.463 29.2973C112.619 30.2522 113.068 30.7208 115.137 30.7208C116.776 30.7208 117.478 30.3784 117.478 29.5676C117.478 29.0992 117.283 28.7568 114.727 28.5225C112.6 28.3243 111.273 27.8919 111.273 26.3243C111.273 24.8649 112.6 24 114.824 24C117.322 24 118.551 24.7928 118.707 26.5225C118.707 26.5766 118.688 26.6306 118.649 26.6847C118.609 26.7208 118.551 26.7568 118.492 26.7568H117.458C117.361 26.7568 117.263 26.6847 117.244 26.5946C117.009 25.6036 116.404 25.2793 114.805 25.2793C113.01 25.2793 112.795 25.8559 112.795 26.2883C112.795 26.8108 113.049 26.973 115.468 27.2613C117.868 27.5495 119 27.964 119 29.5135C119 31.0991 117.575 32 115.117 32Z" fill="black" fill-opacity="0.8"/>
<path fill-rule="evenodd" clip-rule="evenodd" d="M34 22.7519C34 22.4021 33.8103 22.0719 33.5069 21.8969L25.4837 17.136C25.3509 17.0582 25.1992 17.0194 25.0474 17C25.0285 17 24.9716 17 24.9716 17C24.8198 17 24.6681 17.0582 24.5353 17.136L16.4932 21.8775C16.1897 22.0524 16 22.3828 16 22.7519L16.019 35.4996C16.019 35.6745 16.1138 35.8494 16.2655 35.9271C16.4173 36.0243 16.607 36.0243 16.7397 35.9271L21.5195 33.1288C21.823 32.954 22.0127 32.6236 22.0127 32.2738V26.308C22.0127 25.9583 22.2023 25.6279 22.5058 25.4531L24.5353 24.2483C24.6871 24.151 24.8578 24.1122 25.0285 24.1122C25.1992 24.1122 25.3699 24.151 25.5026 24.2483L27.5321 25.4531C27.8356 25.6279 28.0253 25.9583 28.0253 26.308V32.2738C28.0253 32.6236 28.215 32.954 28.5185 33.1288L33.2603 35.9271C33.412 36.0243 33.6017 36.0243 33.7534 35.9271C33.9052 35.8494 34 35.6745 34 35.4996V22.7519Z" fill="black" fill-opacity="0.8"/>
<path fill-rule="evenodd" clip-rule="evenodd" d="M72.7193 6.05635C72.5678 5.98122 72.3785 5.98122 72.246 6.05635C72.0946 6.15026 71.9999 6.30051 71.9999 6.46955V18.6779C71.9999 18.7906 71.9431 18.9033 71.8296 18.9785C71.716 19.0348 71.6025 19.0348 71.489 18.9785L69.4826 17.8327C69.1798 17.6637 68.8201 17.6637 68.5173 17.8327L60.4921 22.4343C60.1893 22.6034 60 22.9227 60 23.2607V32.4452C60 32.7833 60.1893 33.1025 60.4921 33.2716L68.5173 37.8733C68.8201 38.0422 69.1798 38.0422 69.4826 37.8733L77.5078 33.2716C77.8107 33.1025 78 32.7833 78 32.4452V9.54982C78 9.19296 77.8107 8.87366 77.5078 8.70463L72.7193 6.05635ZM71.981 29.4213C71.981 29.5152 71.9431 29.5903 71.8675 29.6278L69.123 31.2056C69.0473 31.2432 68.9526 31.2432 68.8769 31.2056L66.1324 29.6278C66.0568 29.5903 66.0189 29.4964 66.0189 29.4213V26.2659C66.0189 26.172 66.0568 26.0969 66.1324 26.0593L68.8769 24.4816C68.9526 24.444 69.0473 24.444 69.123 24.4816L71.8675 26.0593C71.9431 26.0969 71.981 26.1908 71.981 26.2659V29.4213Z" fill="black" fill-opacity="0.8"/>
<path fill-rule="evenodd" clip-rule="evenodd" d="M99.5248 26.5123C99.829 26.3449 100 26.0289 100 25.6941V23.4811C100 23.1464 99.8099 22.8303 99.5248 22.663L91.5227 18.1256C91.2186 17.9581 90.8574 17.9581 90.5533 18.1256L82.4942 22.6815C82.1901 22.8489 82 23.1651 82 23.4998V32.5932C82 32.928 82.1901 33.2441 82.4942 33.4114L90.4963 37.8744C90.8004 38.0418 91.1615 38.0418 91.4467 37.8744L96.2935 35.2339C96.4456 35.1595 96.5407 34.9921 96.5407 34.8247C96.5407 34.6574 96.4456 34.49 96.2935 34.4156L88.1964 29.8596C88.0443 29.7666 87.9493 29.6179 87.9493 29.4505V26.6053C87.9493 26.4379 88.0443 26.2705 88.1964 26.1962L90.7244 24.7829C90.8765 24.6899 91.0666 24.6899 91.2186 24.7829L93.7466 26.1962C93.8987 26.2892 93.9936 26.4379 93.9936 26.6053V28.8368C93.9936 29.0042 94.0887 29.1715 94.2408 29.2459C94.3928 29.3389 94.5829 29.3389 94.735 29.2459L99.5248 26.5123Z" fill="black" fill-opacity="0.8"/>
<path d="M47.4868 18.1256C47.1813 17.9581 46.8187 17.9581 46.5133 18.1256L38.4772 22.6487C38.1718 22.8162 38 23.1326 38 23.4677V32.5323C38 32.8674 38.1909 33.1838 38.4772 33.3513L46.5133 37.8744C46.8187 38.0419 47.1813 38.0419 47.4868 37.8744L55.5228 33.3513C55.8283 33.1838 56 32.8674 56 32.5323V23.4677C56 23.1326 55.8091 22.8162 55.5228 22.6487L47.4868 18.1256Z" fill="black" fill-opacity="0.8"/>
</svg>
