<svg width="180" height="48" viewBox="0 0 180 48" fill="none" xmlns="http://www.w3.org/2000/svg">
<path d="M38.5817 28.7324C40.8551 28.7324 42.698 26.8895 42.698 24.6161C42.698 22.3427 40.8551 20.4998 38.5817 20.4998C36.3083 20.4998 34.4653 22.3427 34.4653 24.6161C34.4653 26.8895 36.3083 28.7324 38.5817 28.7324Z" fill="black"/>
<path d="M38.5817 33.7436C49.9486 33.7436 59.1633 29.5769 59.1633 24.4371C59.1633 19.2973 49.9486 15.1306 38.5817 15.1306C27.2147 15.1306 18 19.2973 18 24.4371C18 29.5769 27.2147 33.7436 38.5817 33.7436Z" stroke="black" stroke-width="2.53968"/>
<path d="M30.561 29.086C36.2445 38.93 44.4429 44.8369 48.8728 42.2793C53.3026 39.7218 52.2863 29.6683 46.6028 19.8242C40.9194 9.98018 32.7209 4.07331 28.2911 6.63087C23.8613 9.18843 24.8776 19.2419 30.561 29.086Z" stroke="black" stroke-width="2.53968"/>
<path d="M30.5609 19.8242C24.8774 29.6683 23.8612 39.7217 28.291 42.2793C32.7208 44.8369 40.9193 38.93 46.6027 29.0859C52.2862 19.2419 53.3025 9.18841 48.8726 6.63085C44.4428 4.07329 36.2444 9.98015 30.5609 19.8242Z" stroke="black" stroke-width="2.53968"/>
<path d="M70.7344 14.9375H76.7695C78.0664 14.9375 79.1719 15.1328 80.0859 15.5234C81 15.9141 81.6992 16.4922 82.1836 17.2578C82.6758 18.0156 82.9219 18.9531 82.9219 20.0703C82.9219 20.9219 82.7656 21.6719 82.4531 22.3203C82.1406 22.9688 81.6992 23.5156 81.1289 23.9609C80.5586 24.3984 79.8789 24.7383 79.0898 24.9805L78.1992 25.4141H72.7734L72.75 23.082H76.8164C77.5195 23.082 78.1055 22.957 78.5742 22.707C79.043 22.457 79.3945 22.1172 79.6289 21.6875C79.8711 21.25 79.9922 20.7578 79.9922 20.2109C79.9922 19.6172 79.875 19.1016 79.6406 18.6641C79.4141 18.2188 79.0625 17.8789 78.5859 17.6445C78.1094 17.4023 77.5039 17.2812 76.7695 17.2812H73.6758V32H70.7344V14.9375ZM80.4727 32L76.4648 24.3359L79.5469 24.3242L83.6133 31.8477V32H80.4727ZM91.1602 32.2344C90.2227 32.2344 89.375 32.082 88.6172 31.7773C87.8672 31.4648 87.2266 31.0312 86.6953 30.4766C86.1719 29.9219 85.7695 29.2695 85.4883 28.5195C85.207 27.7695 85.0664 26.9609 85.0664 26.0938V25.625C85.0664 24.6328 85.2109 23.7344 85.5 22.9297C85.7891 22.125 86.1914 21.4375 86.707 20.8672C87.2227 20.2891 87.832 19.8477 88.5352 19.543C89.2383 19.2383 90 19.0859 90.8203 19.0859C91.7266 19.0859 92.5195 19.2383 93.1992 19.543C93.8789 19.8477 94.4414 20.2773 94.8867 20.832C95.3398 21.3789 95.6758 22.0312 95.8945 22.7891C96.1211 23.5469 96.2344 24.3828 96.2344 25.2969V26.5039H86.4375V24.4766H93.4453V24.2539C93.4297 23.7461 93.3281 23.2695 93.1406 22.8242C92.9609 22.3789 92.6836 22.0195 92.3086 21.7461C91.9336 21.4727 91.4336 21.3359 90.8086 21.3359C90.3398 21.3359 89.9219 21.4375 89.5547 21.6406C89.1953 21.8359 88.8945 22.1211 88.6523 22.4961C88.4102 22.8711 88.2227 23.3242 88.0898 23.8555C87.9648 24.3789 87.9023 24.9688 87.9023 25.625V26.0938C87.9023 26.6484 87.9766 27.1641 88.125 27.6406C88.2812 28.1094 88.5078 28.5195 88.8047 28.8711C89.1016 29.2227 89.4609 29.5 89.8828 29.7031C90.3047 29.8984 90.7852 29.9961 91.3242 29.9961C92.0039 29.9961 92.6094 29.8594 93.1406 29.5859C93.6719 29.3125 94.1328 28.9258 94.5234 28.4258L96.0117 29.8672C95.7383 30.2656 95.3828 30.6484 94.9453 31.0156C94.5078 31.375 93.9727 31.668 93.3398 31.8945C92.7148 32.1211 91.9883 32.2344 91.1602 32.2344ZM105.586 29.457V23.4102C105.586 22.957 105.504 22.5664 105.34 22.2383C105.176 21.9102 104.926 21.6562 104.59 21.4766C104.262 21.2969 103.848 21.207 103.348 21.207C102.887 21.207 102.488 21.2852 102.152 21.4414C101.816 21.5977 101.555 21.8086 101.367 22.0742C101.18 22.3398 101.086 22.6406 101.086 22.9766H98.2734C98.2734 22.4766 98.3945 21.9922 98.6367 21.5234C98.8789 21.0547 99.2305 20.6367 99.6914 20.2695C100.152 19.9023 100.703 19.6133 101.344 19.4023C101.984 19.1914 102.703 19.0859 103.5 19.0859C104.453 19.0859 105.297 19.2461 106.031 19.5664C106.773 19.8867 107.355 20.3711 107.777 21.0195C108.207 21.6602 108.422 22.4648 108.422 23.4336V29.0703C108.422 29.6484 108.461 30.168 108.539 30.6289C108.625 31.082 108.746 31.4766 108.902 31.8125V32H106.008C105.875 31.6953 105.77 31.3086 105.691 30.8398C105.621 30.3633 105.586 29.9023 105.586 29.457ZM105.996 24.2891L106.02 26.0352H103.992C103.469 26.0352 103.008 26.0859 102.609 26.1875C102.211 26.2812 101.879 26.4219 101.613 26.6094C101.348 26.7969 101.148 27.0234 101.016 27.2891C100.883 27.5547 100.816 27.8555 100.816 28.1914C100.816 28.5273 100.895 28.8359 101.051 29.1172C101.207 29.3906 101.434 29.6055 101.73 29.7617C102.035 29.918 102.402 29.9961 102.832 29.9961C103.41 29.9961 103.914 29.8789 104.344 29.6445C104.781 29.4023 105.125 29.1094 105.375 28.7656C105.625 28.4141 105.758 28.082 105.773 27.7695L106.688 29.0234C106.594 29.3438 106.434 29.6875 106.207 30.0547C105.98 30.4219 105.684 30.7734 105.316 31.1094C104.957 31.4375 104.523 31.707 104.016 31.918C103.516 32.1289 102.938 32.2344 102.281 32.2344C101.453 32.2344 100.715 32.0703 100.066 31.7422C99.418 31.4062 98.9102 30.957 98.543 30.3945C98.1758 29.8242 97.9922 29.1797 97.9922 28.4609C97.9922 27.7891 98.1172 27.1953 98.3672 26.6797C98.625 26.1562 99 25.7188 99.4922 25.3672C99.9922 25.0156 100.602 24.75 101.32 24.5703C102.039 24.3828 102.859 24.2891 103.781 24.2891H105.996ZM116.555 29.9844C117.016 29.9844 117.43 29.8945 117.797 29.7148C118.172 29.5273 118.473 29.2695 118.699 28.9414C118.934 28.6133 119.062 28.2344 119.086 27.8047H121.746C121.73 28.625 121.488 29.3711 121.02 30.043C120.551 30.7148 119.93 31.25 119.156 31.6484C118.383 32.0391 117.527 32.2344 116.59 32.2344C115.621 32.2344 114.777 32.0703 114.059 31.7422C113.34 31.4062 112.742 30.9453 112.266 30.3594C111.789 29.7734 111.43 29.0977 111.188 28.332C110.953 27.5664 110.836 26.7461 110.836 25.8711V25.4609C110.836 24.5859 110.953 23.7656 111.188 23C111.43 22.2266 111.789 21.5469 112.266 20.9609C112.742 20.375 113.34 19.918 114.059 19.5898C114.777 19.2539 115.617 19.0859 116.578 19.0859C117.594 19.0859 118.484 19.2891 119.25 19.6953C120.016 20.0938 120.617 20.6523 121.055 21.3711C121.5 22.082 121.73 22.9102 121.746 23.8555H119.086C119.062 23.3867 118.945 22.9648 118.734 22.5898C118.531 22.207 118.242 21.9023 117.867 21.6758C117.5 21.4492 117.059 21.3359 116.543 21.3359C115.973 21.3359 115.5 21.4531 115.125 21.6875C114.75 21.9141 114.457 22.2266 114.246 22.625C114.035 23.0156 113.883 23.457 113.789 23.9492C113.703 24.4336 113.66 24.9375 113.66 25.4609V25.8711C113.66 26.3945 113.703 26.9023 113.789 27.3945C113.875 27.8867 114.023 28.3281 114.234 28.7188C114.453 29.1016 114.75 29.4102 115.125 29.6445C115.5 29.8711 115.977 29.9844 116.555 29.9844ZM129.727 19.3203V21.3828H122.578V19.3203H129.727ZM124.641 16.2148H127.465V28.4961C127.465 28.8867 127.52 29.1875 127.629 29.3984C127.746 29.6016 127.906 29.7383 128.109 29.8086C128.312 29.8789 128.551 29.9141 128.824 29.9141C129.02 29.9141 129.207 29.9023 129.387 29.8789C129.566 29.8555 129.711 29.832 129.82 29.8086L129.832 31.9648C129.598 32.0352 129.324 32.0977 129.012 32.1523C128.707 32.207 128.355 32.2344 127.957 32.2344C127.309 32.2344 126.734 32.1211 126.234 31.8945C125.734 31.6602 125.344 31.2812 125.062 30.7578C124.781 30.2344 124.641 29.5391 124.641 28.6719V16.2148Z" fill="black"/>
</svg>
