<svg width="180" height="48" viewBox="0 0 180 48" fill="none" xmlns="http://www.w3.org/2000/svg">
<path fill-rule="evenodd" clip-rule="evenodd" d="M29.5691 16C25.9504 16 23.6893 17.8328 22.7843 21.4985C24.1413 19.6657 25.7244 18.9785 27.5335 19.4364C28.5656 19.6976 29.3037 20.4563 30.12 21.2963C31.4504 22.6642 32.9904 24.2472 36.3533 24.2472C39.9714 24.2472 42.233 22.4143 43.1376 18.7492C41.781 20.5821 40.198 21.2692 38.3889 20.8108C37.3562 20.5495 36.6181 19.7908 35.8019 18.9514C34.4714 17.5825 32.9319 16 29.5691 16ZM22.7843 24.2472C19.1661 24.2472 16.9045 26.08 16 29.7457C17.3571 27.9128 18.9401 27.2257 20.7487 27.6836C21.7814 27.9448 22.5194 28.7035 23.3357 29.5435C24.6662 30.9114 26.2056 32.4943 29.5691 32.4943C33.1872 32.4943 35.4488 30.6621 36.3533 26.9964C34.9963 28.8292 33.4132 29.5164 31.6041 29.0585C30.572 28.7967 29.8339 28.038 29.0176 27.1986C27.6871 25.8307 26.1471 24.2472 22.7843 24.2472Z" fill="black" fill-opacity="0.8"/>
<path fill-rule="evenodd" clip-rule="evenodd" d="M56.7045 22.9504H54.3365V27.5931C54.3365 28.8315 55.1384 28.8119 56.7045 28.7344V30.6112C53.5341 30.9981 52.2738 30.1083 52.2738 27.5931V22.9504H50.5168V20.9382H52.2738V18.3401L54.3365 17.7207V20.9382H56.7045V22.9504ZM65.7306 20.9382H67.7928V30.6112H65.7306V29.2184C65.0048 30.2432 63.878 30.8626 62.3885 30.8626C59.7914 30.8626 57.6335 28.638 57.6335 25.7744C57.6335 22.8924 59.7914 20.6867 62.3885 20.6867C63.878 20.6867 65.0048 21.3056 65.7306 22.312V20.9382ZM62.7134 28.8699C64.4321 28.8699 65.7306 27.5736 65.7306 25.7744C65.7306 23.9752 64.4321 22.6794 62.7134 22.6794C60.9947 22.6794 59.6962 23.9757 59.6962 25.7744C59.6962 27.5736 60.9947 28.8699 62.7134 28.8699ZM71.2302 19.4874C70.5048 19.4874 69.913 18.8685 69.913 18.1526C69.9147 17.7978 70.0542 17.4582 70.3011 17.208C70.548 16.9578 70.882 16.8175 71.2302 16.8178C71.5784 16.8174 71.9126 16.9576 72.1596 17.2078C72.4066 17.458 72.5462 17.7977 72.5479 18.1526C72.5479 18.868 71.956 19.4874 71.2302 19.4874ZM70.1991 30.6112V20.9382H72.2618V30.6112H70.1991ZM74.6489 30.6112V16.4878H76.7111V30.6106H74.6489V30.6112ZM90.0983 20.9382H92.2753L89.2772 30.6112H87.2528L85.2666 24.0917L83.2614 30.6112H81.2375L78.2388 20.9382H80.4159L82.2685 27.6121L84.2738 20.9382H86.2408L88.2264 27.6121L90.0983 20.9382ZM94.8342 19.4874C94.1083 19.4874 93.5164 18.8685 93.5164 18.1526C93.5181 17.7977 93.6578 17.458 93.9047 17.2078C94.1517 16.9576 94.4859 16.8174 94.8342 16.8178C95.1824 16.8174 95.5166 16.9576 95.7636 17.2078C96.0106 17.458 96.1502 17.7977 96.1519 18.1526C96.1519 18.868 95.56 19.4874 94.8342 19.4874ZM93.8031 30.6112V20.9382H95.8652V30.6112H93.8031ZM103.275 20.6867C105.414 20.6867 106.941 22.157 106.941 24.6721V30.6106H104.879V24.8845C104.879 23.4143 104.039 22.6409 102.74 22.6409C101.384 22.6409 100.315 23.4533 100.315 25.4265V30.6112H98.2523V20.9382H100.315V22.1765C100.945 21.1707 101.976 20.6867 103.275 20.6867ZM116.719 17.0693H118.782V30.6106H116.719V29.2179C115.994 30.2432 114.867 30.8621 113.377 30.8621C110.78 30.8621 108.622 28.6374 108.622 25.7739C108.622 22.8918 110.78 20.6862 113.377 20.6862C114.867 20.6862 115.994 21.3051 116.719 22.3114V17.0693ZM113.702 28.8699C115.42 28.8699 116.719 27.5736 116.719 25.7744C116.719 23.9752 115.42 22.6794 113.702 22.6794C111.983 22.6794 110.684 23.9757 110.684 25.7744C110.684 27.5736 111.983 28.8699 113.702 28.8699ZM125.695 30.8626C122.811 30.8626 120.653 28.638 120.653 25.7744C120.653 22.8924 122.811 20.6867 125.695 20.6867C127.566 20.6867 129.189 21.673 129.953 23.1823L128.177 24.2272C127.757 23.3178 126.821 22.7374 125.675 22.7374C123.995 22.7374 122.716 24.0337 122.716 25.7744C122.716 27.5156 123.995 28.8119 125.675 28.8119C126.821 28.8119 127.757 28.212 128.215 27.3222L129.991 28.3475C129.189 29.8758 127.566 30.8626 125.695 30.8626ZM133.39 23.6077C133.39 25.3685 138.528 24.3041 138.528 27.8836C138.528 29.8183 136.866 30.8626 134.804 30.8626C132.894 30.8626 131.519 29.9917 130.908 28.599L132.684 27.5547C132.989 28.425 133.754 28.9474 134.804 28.9474C135.721 28.9474 136.427 28.638 136.427 27.8636C136.427 26.1424 131.29 27.1097 131.29 23.6468C131.29 21.828 132.837 20.6867 134.785 20.6867C136.351 20.6867 137.649 21.4221 138.318 22.6989L136.58 23.6852C136.236 22.9309 135.567 22.5824 134.785 22.5824C134.04 22.5824 133.39 22.9114 133.39 23.6077ZM142.194 23.6077C142.194 25.3685 147.331 24.3041 147.331 27.8836C147.331 29.8183 145.67 30.8626 143.607 30.8626C141.698 30.8626 140.323 29.9917 139.711 28.599L141.488 27.5547C141.793 28.425 142.557 28.9474 143.607 28.9474C144.524 28.9474 145.231 28.638 145.231 27.8636C145.231 26.1424 140.094 27.1097 140.094 23.6468C140.094 21.828 141.64 20.6867 143.589 20.6867C145.154 20.6867 146.453 21.4221 147.121 22.6989L145.383 23.6852C145.04 22.9309 144.371 22.5824 143.589 22.5824C142.844 22.5824 142.194 22.9114 142.194 23.6077Z" fill="black" fill-opacity="0.8"/>
</svg>
