<svg width="180" height="48" viewBox="0 0 180 48" fill="none" xmlns="http://www.w3.org/2000/svg">
<path d="M25.1202 4.83549C36.1704 8.02771 47.1466 11.2032 58.123 14.3781C58.2129 14.4041 58.3071 14.4154 58.3964 14.4431C59.5008 14.7851 59.6064 15.1695 58.7911 15.9633C56.6643 18.034 54.533 20.1001 52.3976 22.1619C44.8454 29.4542 37.2908 36.744 29.7368 44.0344C29.6019 44.1646 29.4688 44.2972 29.327 44.4196C28.5121 45.1233 28.1172 44.9934 27.8584 43.9434C26.3127 37.6715 24.7658 31.3998 23.2201 25.1279C21.525 18.2497 19.8307 11.3712 18.1368 4.49266C18.1144 4.40184 18.1046 4.30801 18.0847 4.21649C17.8377 3.07709 18.1077 2.80738 19.2004 3.12192C21.1502 3.68322 23.0977 4.25269 25.1202 4.83549ZM32.876 39.3907C33.556 38.6718 34.236 37.9529 35.0006 37.1446C32.3116 36.3729 29.627 35.6024 26.7805 34.7854C27.5024 37.7052 28.17 40.4056 28.8829 43.2891C30.2932 41.9124 31.5374 40.698 32.876 39.3907ZM29.6068 18.8755C28.067 20.4838 26.3099 21.8768 24.7175 23.6871C27.4824 24.4877 30.0904 25.2429 32.893 26.0544C32.1895 23.2002 31.5331 20.5374 30.8768 17.8746C30.7708 17.8165 30.6649 17.7584 30.5589 17.7003C30.2726 18.0613 29.9864 18.4223 29.6068 18.8755ZM56.9328 16.2192C57.1197 15.981 57.4424 15.8479 57.5182 15.3759C54.894 14.6199 52.2636 13.862 49.4868 13.0619C50.1876 15.9108 50.838 18.555 51.5336 21.3831C53.3904 19.6072 55.1151 17.9575 56.9328 16.2192ZM47.5763 25.2162C48.3953 24.3958 49.2143 23.5754 50.1307 22.6574C47.3466 21.8651 44.7369 21.1223 41.9412 20.3266C42.6536 23.1894 43.3021 25.7954 44.0097 28.639C45.2884 27.4114 46.3843 26.3595 47.5763 25.2162ZM27.0321 15.9998C25.3377 15.5173 23.6433 15.0348 21.7826 14.505C22.4902 17.353 23.1512 20.0133 23.8122 22.6736C23.911 22.6976 24.0099 22.7216 24.1087 22.7455C25.9475 20.7393 27.7862 18.7331 29.5978 16.7564C28.9075 16.5495 28.0438 16.2906 27.0321 15.9998ZM37.0953 27.2764C38.9396 27.8028 40.7839 28.3292 42.8663 28.9236C42.1661 26.0584 41.5236 23.4289 40.8346 20.6088C38.6998 22.6513 36.6925 24.4781 34.7329 26.5563C35.5877 26.8145 36.2704 27.0207 37.0953 27.2764ZM23.4312 5.53191C22.1101 5.1664 20.789 4.8009 19.3004 4.38906C20.0027 7.22684 20.648 9.83469 21.3735 12.7664C23.3794 10.535 25.198 8.51182 26.9408 6.57308C26.0659 6.31324 24.8215 5.94369 23.4312 5.53191ZM31.4056 29.671C30.1359 31.0191 28.8661 32.3672 27.5236 33.7926C30.0496 34.5216 32.5786 35.2515 35.3488 36.051C34.6525 33.2112 34.0097 30.5893 33.3668 27.9674C33.2565 27.9197 33.1461 27.8721 33.0358 27.8244C32.5238 28.4089 32.0118 28.9934 31.4056 29.671ZM47.3383 14.2944C45.7938 15.9795 44.2493 17.6645 42.7221 19.3307C45.0764 20.0085 47.6303 20.7437 50.3822 21.536C49.6872 18.7039 49.0468 16.0938 48.3665 13.3213C47.9652 13.6995 47.6985 13.9509 47.3383 14.2944ZM44.4482 15.5258C45.4072 14.5216 46.3662 13.5175 47.3835 12.4521C44.7718 11.7031 42.1906 10.9628 39.4418 10.1744C40.1432 12.9911 40.7916 15.5946 41.478 18.3511C42.5481 17.3324 43.4494 16.4744 44.4482 15.5258ZM33.4022 23.3285C33.6673 23.9936 33.5715 24.7917 34.2224 25.54C36.0562 23.5052 37.8342 21.5324 39.5794 19.5959C37.2809 18.9368 34.7249 18.2039 31.958 17.4105C32.4623 19.4587 32.9198 21.3172 33.4022 23.3285ZM26.7303 9.05845C25.339 10.5103 23.9476 11.9621 22.4927 13.4803C25.0454 14.2183 27.5931 14.9548 30.3485 15.7514C29.6483 12.9014 29.0093 10.3007 28.3446 7.59511C27.7494 8.13325 27.2882 8.55029 26.7303 9.05845ZM26.6026 25.4326C25.8917 25.2881 25.2274 24.8952 24.3687 24.9787C25.0247 27.6323 25.6628 30.2135 26.3458 32.9763C28.4176 30.9784 30.3366 29.1278 32.4162 27.1225C30.3774 26.5337 28.561 26.009 26.6026 25.4326ZM41.407 29.7117C39.1764 29.0719 36.9459 28.432 34.5046 27.7317C35.1886 30.534 35.8171 33.1086 36.4956 35.8882C38.5749 33.8909 40.4888 32.0525 42.3923 30.2241C42.1016 29.8465 41.7818 29.8832 41.407 29.7117ZM37.2529 9.67959C35.6831 8.90463 33.9488 8.64635 32.303 8.10968C31.4364 7.82712 30.5515 7.60108 29.4677 7.29008C30.1577 10.0995 30.7881 12.6656 31.4679 15.4334C33.54 13.4548 35.4976 11.7314 37.2529 9.67959ZM37.7657 10.9623C36.0838 12.7871 34.402 14.6119 32.7364 16.4191C34.9906 17.0686 37.531 17.8006 40.3316 18.6075C39.633 15.7547 38.9986 13.164 38.3356 10.4565C38.0806 10.6821 37.967 10.7827 37.7657 10.9623Z" fill="black"/>
<path d="M65.6089 33.7241C65.6086 33.4096 65.6107 33.1868 65.6075 32.964C65.59 31.7379 65.1977 31.2267 64.2833 31.2359C63.2804 31.2459 62.4592 32.034 62.444 33.0242C62.4289 34.0107 62.4472 34.9978 62.4267 35.984C62.4165 36.4777 62.3458 36.985 61.7217 36.9944C61.0976 37.0038 61.0011 36.5134 61.0005 36.0087C60.9976 33.4309 61.0073 30.853 61.0171 28.2752C61.0178 28.0854 61.0572 27.8959 61.0745 27.7059C61.1103 27.3115 61.2857 27.0231 61.6764 27.0013C62.1179 26.9767 62.3495 27.2997 62.3832 27.7103C62.4378 28.374 62.4162 29.0443 62.4431 29.7111C62.4542 29.9853 62.366 30.28 62.5775 30.5759C62.8593 30.4122 63.1339 30.232 63.4242 30.0875C65.0915 29.2575 66.8549 30.3046 66.9631 32.2445C67.0356 33.5449 66.9792 34.8534 66.9776 36.1583C66.9771 36.627 66.8204 36.9883 66.3206 36.9997C65.7597 37.0125 65.6218 36.6028 65.6169 36.1074C65.6094 35.3436 65.6112 34.5797 65.6089 33.7241Z" fill="black"/>
<path d="M85.7216 30.0041C87.7418 30.2734 88.7051 31.1294 88.967 32.8103C89.1023 33.6786 88.8382 34.0108 87.8562 34.0372C86.5164 34.0733 85.1744 34.0462 83.8271 34.0462C83.8942 35.0015 84.4503 35.5003 85.4875 35.6205C86.2063 35.7037 86.8888 35.5722 87.5629 35.3401C87.9874 35.194 88.4753 35.1336 88.6838 35.6184C88.8895 36.0967 88.4757 36.3227 88.0772 36.5221C86.5221 37.3002 84.1676 37.1053 83.0526 36.1039C81.8859 35.0561 81.6372 32.8049 82.5685 31.4302C83.2605 30.4086 84.3068 29.9515 85.7216 30.0041ZM87.1717 32.6477C87.1785 31.8527 86.4749 31.2393 85.5406 31.2257C84.5765 31.2117 83.8571 31.8343 83.8439 32.7225C84.9096 32.7225 85.9758 32.7225 87.1717 32.6477Z" fill="black"/>
<path d="M81 33.1234C80.9547 33.8814 80.4451 34.0324 79.8142 34.0339C78.7734 34.0362 77.7324 34.0223 76.6919 34.036C76.3762 34.0401 75.9523 33.9513 75.8371 34.3356C75.7397 34.6602 76.0155 34.9144 76.2682 35.106C77.0937 35.7319 78.0359 35.7227 79.0259 35.491C79.5943 35.358 80.3877 34.8434 80.6613 35.6525C80.9262 36.4358 79.9773 36.5967 79.3814 36.7543C77.8265 37.1656 76.2733 37.1449 75.0616 36.032C73.9278 34.9906 73.8051 33.6681 74.2138 32.3094C74.6697 30.7939 75.8271 30.0002 77.4958 30C79.2505 29.9997 80.3803 30.7793 80.8634 32.3368C80.9348 32.567 80.9568 32.8096 81 33.1234ZM79.2401 32.1721C78.7453 31.4717 78.0597 31.0795 77.1261 31.279C76.3147 31.4523 75.8045 31.9293 75.6881 32.8056C76.811 32.8056 77.8746 32.7968 78.9379 32.8095C79.4316 32.8154 79.4056 32.5857 79.2401 32.1721Z" fill="black"/>
<path d="M100.526 36.9774C99.5422 37.0618 98.6854 36.902 97.8619 36.6287C97.3681 36.4649 96.7977 36.2427 97.0709 35.6547C97.3168 35.1257 97.8706 35.2605 98.3421 35.4119C98.9818 35.6173 99.6353 35.7075 100.307 35.6313C100.771 35.5786 101.265 35.4495 101.309 34.9782C101.348 34.5513 100.841 34.4935 100.496 34.3905C99.8334 34.1929 99.1346 34.0803 98.4848 33.859C97.5671 33.5464 96.9528 32.989 97.005 32.0736C97.0563 31.1726 97.5717 30.5272 98.5737 30.2188C99.7919 29.8438 100.996 29.9906 102.178 30.3597C102.553 30.4768 102.75 30.7339 102.652 31.0732C102.542 31.4576 102.183 31.613 101.759 31.5353C101.137 31.421 100.517 31.3272 99.8809 31.3647C99.329 31.3973 98.7442 31.5145 98.6864 32.056C98.6344 32.5443 99.2297 32.6188 99.65 32.7392C100.216 32.9012 100.804 33.0089 101.366 33.1798C102.523 33.5316 103.034 34.1341 102.998 35.0449C102.962 35.9622 102.319 36.5853 101.127 36.8563C100.957 36.895 100.786 36.928 100.526 36.9774Z" fill="black"/>
<path d="M94.0428 32.7905C94.0494 32.0785 94.036 31.4664 94.0695 30.8561C94.0971 30.3506 94.4163 30.0058 95.048 30.0001C95.7088 29.994 95.983 30.3771 95.9833 30.872C95.9848 33.6569 96.0475 36.4445 95.9196 39.2256C95.8549 40.6319 94.2918 41.3266 92.7325 40.8509C92.3178 40.7244 91.9844 40.5618 92.0006 40.1503C92.0167 39.7379 92.3591 39.4962 92.7886 39.5125C93.9828 39.5579 94.0626 38.9479 94.0519 38.1906C94.027 36.4243 94.0433 34.6576 94.0428 32.7905Z" fill="black"/>
<path d="M57.7669 34.7921C57.9294 35.5599 58.4533 35.5177 58.979 35.4982C59.4154 35.482 59.9371 35.3968 59.9959 36.031C60.0486 36.6 59.5894 36.7304 59.1471 36.8585C57.4229 37.3579 56.2395 36.5089 56.2112 34.7286C56.1957 33.7516 56.196 32.774 56.2104 31.797C56.2188 31.2218 56.2216 30.7172 55.4177 30.6775C55.0544 30.6595 54.8548 30.2984 55.1254 30.0148C55.8298 29.2766 56.4516 28.4233 57.3255 28C57.7154 28.1449 57.7494 28.3602 57.7348 28.5558C57.6822 29.2595 58.0714 29.434 58.6797 29.3785C58.7807 29.3693 58.8834 29.3813 58.9853 29.3808C59.4224 29.3786 59.861 29.4476 59.8761 29.9786C59.8919 30.5341 59.46 30.7652 58.9807 30.7086C57.8645 30.577 57.665 31.1364 57.7384 32.0776C57.8063 32.9486 57.7565 33.8287 57.7669 34.7921Z" fill="black"/>
<path d="M70.7765 32.6607C70.7545 33.7631 70.7581 34.7887 70.737 35.8139C70.7264 36.3282 70.8611 36.9834 69.9037 36.9997C68.9609 37.0157 69.0099 36.3842 69.0066 35.853C68.9969 34.3302 69.0005 32.8074 69.0014 31.2846C69.0017 30.8149 68.9559 30.3042 69.6551 30.1192C70.312 29.9455 70.5624 30.4115 70.8858 30.7546C71.5167 30.4423 72.0798 30.0474 72.8327 30.005C73.4202 29.9719 73.9434 30.0935 73.9964 30.6508C74.044 31.1502 73.6085 31.3566 73.0553 31.3993C72.0498 31.4771 71.2151 31.7655 70.7765 32.6607Z" fill="black"/>
<path d="M91.9682 36.5446C91.4972 37.0862 90.9741 37.0961 90.455 36.8275C90.0678 36.6273 89.9461 36.242 90.0209 35.8302C90.0976 35.4083 90.4008 35.156 90.808 35.0449C91.6219 34.8228 92.1362 35.4408 91.9682 36.5446Z" fill="black"/>
<path d="M92.4562 26.2629C93.3937 26.2746 93.7805 26.7349 93.618 27.5485C93.4818 28.23 92.9304 28.3449 92.3406 28.2173C91.9724 28.1376 91.7339 27.8681 91.6735 27.4833C91.5823 26.9024 91.8065 26.4911 92.4562 26.2629Z" fill="black"/>
</svg>
