<svg width="180" height="48" viewBox="0 0 180 48" fill="none" xmlns="http://www.w3.org/2000/svg">
<path fill-rule="evenodd" clip-rule="evenodd" d="M17.4625 5H53.5375C54.3452 5 55 5.63799 55 6.425V41.575C55 42.362 54.3452 43 53.5375 43H17.4625C16.6548 43 16 42.362 16 41.575V6.425C16 5.63799 16.6548 5 17.4625 5ZM37.6799 25.2166V22.1H23.8V25.2166H28.7553V39.0933H32.7002V25.2166H37.6799ZM39.2526 38.7269C39.8887 39.0429 40.6411 39.2799 41.5096 39.4379C42.3783 39.5959 43.2937 39.675 44.2561 39.675C45.1941 39.675 46.085 39.588 46.9292 39.4143C47.7732 39.2405 48.5133 38.954 49.1494 38.555C49.7856 38.156 50.2892 37.6347 50.6603 36.9907C51.0314 36.3468 51.2169 35.5508 51.2169 34.6027C51.2169 33.9154 51.1109 33.3131 50.8988 32.7955C50.6869 32.278 50.381 31.8178 49.9813 31.4148C49.5818 31.0119 49.1026 30.6504 48.5439 30.3305C47.9852 30.0106 47.3553 29.7083 46.6539 29.4239C46.14 29.2184 45.6792 29.0189 45.2715 28.8254C44.8636 28.6319 44.517 28.4343 44.2316 28.2329C43.9461 28.0314 43.726 27.8181 43.571 27.5929C43.4161 27.3678 43.3386 27.1129 43.3386 26.8285C43.3386 26.5678 43.4079 26.3328 43.5466 26.1235C43.6852 25.914 43.8809 25.7343 44.1338 25.5842C44.3866 25.4341 44.6965 25.3176 45.0635 25.2346C45.4305 25.1517 45.8383 25.1102 46.2868 25.1102C46.6131 25.1102 46.9577 25.1339 47.3206 25.1812C47.6835 25.2287 48.0485 25.3018 48.4154 25.4004C48.7825 25.4992 49.1394 25.6236 49.486 25.7739C49.8326 25.924 50.1526 26.0977 50.4463 26.2952V22.7518C49.8508 22.5306 49.2005 22.3666 48.4949 22.26C47.7896 22.1533 46.9801 22.1 46.0666 22.1C45.1369 22.1 44.2561 22.1968 43.4242 22.3904C42.5923 22.5839 41.8604 22.8862 41.2283 23.297C40.5962 23.7078 40.0966 24.2312 39.7297 24.8671C39.3626 25.5032 39.1792 26.2636 39.1792 27.1484C39.1792 28.2784 39.5155 29.2422 40.1884 30.0401C40.8613 30.8381 41.8828 31.5136 43.2529 32.0667C43.7913 32.2801 44.2927 32.4893 44.7577 32.6948C45.2225 32.9002 45.6242 33.1136 45.9626 33.3347C46.3011 33.556 46.5682 33.7968 46.764 34.0576C46.9597 34.3183 47.0576 34.6146 47.0576 34.9465C47.0576 35.1914 46.9964 35.4186 46.874 35.6279C46.7516 35.8373 46.5661 36.019 46.3174 36.173C46.0687 36.3271 45.7588 36.4476 45.3877 36.5344C45.0167 36.6214 44.5823 36.6648 44.0848 36.6648C43.2366 36.6648 42.3965 36.5207 41.5646 36.2323C40.7329 35.944 39.9621 35.5114 39.2526 34.9346V38.7269Z" fill="black"/>
<path d="M67.9043 17.7812V32H66.0488V17.7812H67.9043ZM72.4746 17.7812V19.3242H61.4883V17.7812H72.4746ZM76.5762 30.9062L79.5156 21.4336H81.4492L77.2109 33.6309C77.1133 33.8913 76.9831 34.1712 76.8203 34.4707C76.6641 34.7767 76.4622 35.0664 76.2148 35.3398C75.9674 35.6133 75.668 35.8346 75.3164 36.0039C74.9714 36.1797 74.5579 36.2676 74.0762 36.2676C73.9329 36.2676 73.7507 36.248 73.5293 36.209C73.3079 36.1699 73.1517 36.1374 73.0605 36.1113L73.0508 34.6465C73.1029 34.653 73.1842 34.6595 73.2949 34.666C73.4121 34.679 73.4935 34.6855 73.5391 34.6855C73.9492 34.6855 74.2975 34.6302 74.584 34.5195C74.8704 34.4154 75.1113 34.2363 75.3066 33.9824C75.5085 33.735 75.681 33.3932 75.8242 32.957L76.5762 30.9062ZM74.418 21.4336L77.1621 29.6367L77.6309 31.541L76.332 32.2051L72.4453 21.4336H74.418ZM84.8867 23.4648V36.0625H83.0703V21.4336H84.7305L84.8867 23.4648ZM92.0059 26.6289V26.834C92.0059 27.6022 91.9147 28.3151 91.7324 28.9727C91.5501 29.6237 91.2832 30.1901 90.9316 30.6719C90.5866 31.1536 90.1602 31.528 89.6523 31.7949C89.1445 32.0618 88.5618 32.1953 87.9043 32.1953C87.2337 32.1953 86.6413 32.0846 86.127 31.8633C85.6126 31.6419 85.1764 31.3197 84.8184 30.8965C84.4603 30.4733 84.1738 29.9655 83.959 29.373C83.7507 28.7806 83.6074 28.1133 83.5293 27.3711V26.2773C83.6074 25.4961 83.7539 24.7962 83.9688 24.1777C84.1836 23.5592 84.4668 23.0319 84.8184 22.5957C85.1764 22.153 85.6094 21.8177 86.1172 21.5898C86.625 21.3555 87.2109 21.2383 87.875 21.2383C88.5391 21.2383 89.1283 21.3685 89.6426 21.6289C90.1569 21.8828 90.5898 22.2474 90.9414 22.7227C91.293 23.1979 91.5566 23.7676 91.7324 24.4316C91.9147 25.0892 92.0059 25.8216 92.0059 26.6289ZM90.1895 26.834V26.6289C90.1895 26.1016 90.1341 25.6068 90.0234 25.1445C89.9128 24.6758 89.7402 24.2656 89.5059 23.9141C89.278 23.556 88.985 23.276 88.627 23.0742C88.2689 22.8659 87.8424 22.7617 87.3477 22.7617C86.8919 22.7617 86.4948 22.8398 86.1562 22.9961C85.8242 23.1523 85.541 23.3639 85.3066 23.6309C85.0723 23.8913 84.8802 24.1908 84.7305 24.5293C84.5872 24.8613 84.4798 25.2064 84.4082 25.5645V28.0938C84.5384 28.5495 84.7207 28.9792 84.9551 29.3828C85.1895 29.7799 85.502 30.1022 85.8926 30.3496C86.2832 30.5905 86.7747 30.7109 87.3672 30.7109C87.8555 30.7109 88.2754 30.61 88.627 30.4082C88.985 30.1999 89.278 29.9167 89.5059 29.5586C89.7402 29.2005 89.9128 28.7904 90.0234 28.3281C90.1341 27.8594 90.1895 27.3613 90.1895 26.834ZM98.6953 32.1953C97.9596 32.1953 97.2923 32.0716 96.6934 31.8242C96.1009 31.5703 95.5898 31.2155 95.1602 30.7598C94.737 30.304 94.4115 29.7637 94.1836 29.1387C93.9557 28.5137 93.8418 27.8301 93.8418 27.0879V26.6777C93.8418 25.8184 93.9688 25.0534 94.2227 24.3828C94.4766 23.7057 94.8216 23.1328 95.2578 22.6641C95.694 22.1953 96.1888 21.8405 96.7422 21.5996C97.2956 21.3587 97.8685 21.2383 98.4609 21.2383C99.2161 21.2383 99.8672 21.3685 100.414 21.6289C100.967 21.8893 101.42 22.2539 101.771 22.7227C102.123 23.1849 102.383 23.7318 102.553 24.3633C102.722 24.9883 102.807 25.6719 102.807 26.4141V27.2246H94.916V25.75H101V25.6133C100.974 25.1445 100.876 24.6888 100.707 24.2461C100.544 23.8034 100.284 23.4388 99.9258 23.1523C99.5677 22.8659 99.0794 22.7227 98.4609 22.7227C98.0508 22.7227 97.6732 22.8105 97.3281 22.9863C96.9831 23.1556 96.6868 23.4095 96.4395 23.748C96.1921 24.0866 96 24.5 95.8633 24.9883C95.7266 25.4766 95.6582 26.0397 95.6582 26.6777V27.0879C95.6582 27.5892 95.7266 28.0612 95.8633 28.5039C96.0065 28.9401 96.2116 29.3242 96.4785 29.6562C96.752 29.9883 97.0807 30.2487 97.4648 30.4375C97.8555 30.6263 98.2982 30.7207 98.793 30.7207C99.431 30.7207 99.9714 30.5905 100.414 30.3301C100.857 30.0697 101.244 29.7214 101.576 29.2852L102.67 30.1543C102.442 30.4993 102.152 30.8281 101.801 31.1406C101.449 31.4531 101.016 31.707 100.502 31.9023C99.9941 32.0977 99.3919 32.1953 98.6953 32.1953ZM112.768 28.4062C112.768 28.0742 112.715 27.7812 112.611 27.5273C112.514 27.2669 112.338 27.0326 112.084 26.8242C111.837 26.6159 111.492 26.4173 111.049 26.2285C110.613 26.0397 110.059 25.8477 109.389 25.6523C108.686 25.444 108.051 25.2129 107.484 24.959C106.918 24.6986 106.433 24.4023 106.029 24.0703C105.626 23.7383 105.316 23.3574 105.102 22.9277C104.887 22.498 104.779 22.0065 104.779 21.4531C104.779 20.8997 104.893 20.3887 105.121 19.9199C105.349 19.4512 105.674 19.0443 106.098 18.6992C106.527 18.3477 107.038 18.0742 107.631 17.8789C108.223 17.6836 108.884 17.5859 109.613 17.5859C110.681 17.5859 111.586 17.791 112.328 18.2012C113.077 18.6048 113.646 19.1354 114.037 19.793C114.428 20.444 114.623 21.1406 114.623 21.8828H112.748C112.748 21.349 112.634 20.877 112.406 20.4668C112.178 20.0501 111.833 19.7246 111.371 19.4902C110.909 19.2493 110.323 19.1289 109.613 19.1289C108.943 19.1289 108.389 19.2298 107.953 19.4316C107.517 19.6335 107.191 19.9069 106.977 20.252C106.768 20.597 106.664 20.9909 106.664 21.4336C106.664 21.7331 106.726 22.0065 106.85 22.2539C106.98 22.4948 107.178 22.7194 107.445 22.9277C107.719 23.1361 108.064 23.3281 108.48 23.5039C108.904 23.6797 109.408 23.849 109.994 24.0117C110.801 24.2396 111.498 24.4935 112.084 24.7734C112.67 25.0534 113.152 25.3691 113.529 25.7207C113.913 26.0658 114.197 26.4596 114.379 26.9023C114.568 27.3385 114.662 27.8333 114.662 28.3867C114.662 28.9661 114.545 29.4902 114.311 29.959C114.076 30.4277 113.741 30.8281 113.305 31.1602C112.868 31.4922 112.344 31.7493 111.732 31.9316C111.127 32.1074 110.45 32.1953 109.701 32.1953C109.044 32.1953 108.396 32.1042 107.758 31.9219C107.126 31.7396 106.55 31.4661 106.029 31.1016C105.515 30.737 105.102 30.2878 104.789 29.7539C104.483 29.2135 104.33 28.5885 104.33 27.8789H106.205C106.205 28.3672 106.299 28.7871 106.488 29.1387C106.677 29.4837 106.934 29.7702 107.26 29.998C107.592 30.2259 107.966 30.3952 108.383 30.5059C108.806 30.61 109.245 30.6621 109.701 30.6621C110.359 30.6621 110.915 30.571 111.371 30.3887C111.827 30.2064 112.172 29.946 112.406 29.6074C112.647 29.2689 112.768 28.8685 112.768 28.4062ZM121.02 30.7109C121.449 30.7109 121.846 30.623 122.211 30.4473C122.576 30.2715 122.875 30.0306 123.109 29.7246C123.344 29.4121 123.477 29.0573 123.51 28.6602H125.229C125.196 29.2852 124.984 29.8678 124.594 30.4082C124.21 30.9421 123.705 31.375 123.08 31.707C122.455 32.0326 121.768 32.1953 121.02 32.1953C120.225 32.1953 119.532 32.0553 118.939 31.7754C118.354 31.4954 117.865 31.1113 117.475 30.623C117.09 30.1348 116.801 29.5749 116.605 28.9434C116.417 28.3053 116.322 27.6315 116.322 26.9219V26.5117C116.322 25.8021 116.417 25.1315 116.605 24.5C116.801 23.862 117.09 23.2988 117.475 22.8105C117.865 22.3223 118.354 21.9382 118.939 21.6582C119.532 21.3783 120.225 21.2383 121.02 21.2383C121.846 21.2383 122.569 21.4076 123.188 21.7461C123.806 22.0781 124.291 22.5339 124.643 23.1133C125.001 23.6862 125.196 24.3372 125.229 25.0664H123.51C123.477 24.6302 123.354 24.2363 123.139 23.8848C122.93 23.5332 122.644 23.2533 122.279 23.0449C121.921 22.8301 121.501 22.7227 121.02 22.7227C120.466 22.7227 120.001 22.8333 119.623 23.0547C119.252 23.2695 118.956 23.5625 118.734 23.9336C118.52 24.2982 118.363 24.7051 118.266 25.1543C118.174 25.597 118.129 26.0495 118.129 26.5117V26.9219C118.129 27.3841 118.174 27.8398 118.266 28.2891C118.357 28.7383 118.51 29.1452 118.725 29.5098C118.946 29.8743 119.242 30.1673 119.613 30.3887C119.991 30.6035 120.46 30.7109 121.02 30.7109ZM129.066 23.0938V32H127.26V21.4336H129.018L129.066 23.0938ZM132.367 21.375L132.357 23.0547C132.208 23.0221 132.064 23.0026 131.928 22.9961C131.798 22.9831 131.648 22.9766 131.479 22.9766C131.062 22.9766 130.694 23.0417 130.375 23.1719C130.056 23.3021 129.786 23.4844 129.564 23.7188C129.343 23.9531 129.167 24.2331 129.037 24.5586C128.913 24.8776 128.832 25.2292 128.793 25.6133L128.285 25.9062C128.285 25.2682 128.347 24.6693 128.471 24.1094C128.601 23.5495 128.799 23.0547 129.066 22.625C129.333 22.1888 129.672 21.8503 130.082 21.6094C130.499 21.362 130.993 21.2383 131.566 21.2383C131.697 21.2383 131.846 21.2546 132.016 21.2871C132.185 21.3132 132.302 21.3424 132.367 21.375ZM136 21.4336V32H134.184V21.4336H136ZM134.047 18.6309C134.047 18.3379 134.135 18.0905 134.311 17.8887C134.493 17.6868 134.76 17.5859 135.111 17.5859C135.456 17.5859 135.72 17.6868 135.902 17.8887C136.091 18.0905 136.186 18.3379 136.186 18.6309C136.186 18.9108 136.091 19.1517 135.902 19.3535C135.72 19.5488 135.456 19.6465 135.111 19.6465C134.76 19.6465 134.493 19.5488 134.311 19.3535C134.135 19.1517 134.047 18.9108 134.047 18.6309ZM140.707 23.4648V36.0625H138.891V21.4336H140.551L140.707 23.4648ZM147.826 26.6289V26.834C147.826 27.6022 147.735 28.3151 147.553 28.9727C147.37 29.6237 147.104 30.1901 146.752 30.6719C146.407 31.1536 145.98 31.528 145.473 31.7949C144.965 32.0618 144.382 32.1953 143.725 32.1953C143.054 32.1953 142.462 32.0846 141.947 31.8633C141.433 31.6419 140.997 31.3197 140.639 30.8965C140.281 30.4733 139.994 29.9655 139.779 29.373C139.571 28.7806 139.428 28.1133 139.35 27.3711V26.2773C139.428 25.4961 139.574 24.7962 139.789 24.1777C140.004 23.5592 140.287 23.0319 140.639 22.5957C140.997 22.153 141.43 21.8177 141.938 21.5898C142.445 21.3555 143.031 21.2383 143.695 21.2383C144.359 21.2383 144.949 21.3685 145.463 21.6289C145.977 21.8828 146.41 22.2474 146.762 22.7227C147.113 23.1979 147.377 23.7676 147.553 24.4316C147.735 25.0892 147.826 25.8216 147.826 26.6289ZM146.01 26.834V26.6289C146.01 26.1016 145.954 25.6068 145.844 25.1445C145.733 24.6758 145.561 24.2656 145.326 23.9141C145.098 23.556 144.805 23.276 144.447 23.0742C144.089 22.8659 143.663 22.7617 143.168 22.7617C142.712 22.7617 142.315 22.8398 141.977 22.9961C141.645 23.1523 141.361 23.3639 141.127 23.6309C140.893 23.8913 140.701 24.1908 140.551 24.5293C140.408 24.8613 140.3 25.2064 140.229 25.5645V28.0938C140.359 28.5495 140.541 28.9792 140.775 29.3828C141.01 29.7799 141.322 30.1022 141.713 30.3496C142.104 30.5905 142.595 30.7109 143.188 30.7109C143.676 30.7109 144.096 30.61 144.447 30.4082C144.805 30.1999 145.098 29.9167 145.326 29.5586C145.561 29.2005 145.733 28.7904 145.844 28.3281C145.954 27.8594 146.01 27.3613 146.01 26.834ZM154.555 21.4336V22.8203H148.842V21.4336H154.555ZM150.775 18.8652H152.582V29.3828C152.582 29.7409 152.637 30.0111 152.748 30.1934C152.859 30.3757 153.002 30.4961 153.178 30.5547C153.354 30.6133 153.542 30.6426 153.744 30.6426C153.894 30.6426 154.05 30.6296 154.213 30.6035C154.382 30.571 154.509 30.5449 154.594 30.5254L154.604 32C154.46 32.0456 154.271 32.0879 154.037 32.127C153.809 32.1725 153.533 32.1953 153.207 32.1953C152.764 32.1953 152.357 32.1074 151.986 31.9316C151.615 31.7559 151.319 31.4629 151.098 31.0527C150.883 30.6361 150.775 30.0762 150.775 29.373V18.8652Z" fill="black"/>
</svg>
